<svg width="96" height="20" viewBox="0 0 96 20" fill="none" xmlns="http://www.w3.org/2000/svg">
<path d="M5.34 15.77V12.44H18.18V15.77H5.34ZM0.51 20L9.63 0.59H13.95L23.16 20H18.81L10.83 2.51H12.75L4.83 20H0.51Z" fill="#CD1B27"/>
<path d="M40.9519 0.59H45.8119L36.6319 11.3L36.5119 11.42L29.7019 20H24.8419L34.2919 8.75L34.3819 8.66L40.9519 0.59ZM30.0019 0.59L36.4819 8.72L36.5419 8.81L45.9019 20H40.8319L34.1119 11.3L34.0219 11.24L25.1419 0.59H30.0019ZM53.3801 11.9V16.67H68.3501V20H49.3901V0.59H68.3201V3.92H53.3801V8.75H65.6201V11.9H53.3801ZM76.4367 0.59V16.67H89.3367V20H72.4467V0.59H76.4367ZM95.8613 16.58V20H91.3313V16.58H95.8613Z" fill="white"/>
</svg>
